<svg xmlns="http://www.w3.org/2000/svg" viewBox="0 0 410 404" aria-hidden="true">
  <defs>
    <linearGradient id="vite-a" x1="6" x2="235" y1="33" y2="344" gradientUnits="userSpaceOnUse">
      <stop stop-color="#41D1FF"/>
      <stop offset="1" stop-color="#BD34FE"/>
    </linearGradient>
    <linearGradient id="vite-b" x1="194" x2="236" y1="8" y2="292" gradientUnits="userSpaceOnUse">
      <stop stop-color="#FFEA83"/>
      <stop offset=".083" stop-color="#FFDD35"/>
      <stop offset="1" stop-color="#FFA800"/>
    </linearGradient>
  </defs>
  <path fill="url(#vite-a)" d="M399 59 215 388c-4 8-16 8-20 0L11 59c-5-9 3-20 13-18l182 33c1 0 2 0 4 0l176-33c10-2 18 9 13 18Z"/>
  <path fill="url(#vite-b)" d="M292 1 156 28c-2 1-4 3-4 6l-8 139c0 3 3 6 6 5l38-9c4-1 7 3 6 7l-11 54c-1 4 3 7 7 6l23-7c4-1 8 3 6 7l-18 88c-1 6 7 9 10 4l2-4 111-222c2-4-1-8-5-7l-39 8c-4 1-7-3-6-7l25-87c1-4-2-8-7-7Z"/>
</svg>
